<?xml version="1.0" standalone="no"?>
<!DOCTYPE svg PUBLIC "-//W3C//DTD SVG 20010904//EN"
 "http://www.w3.org/TR/2001/REC-SVG-20010904/DTD/svg10.dtd">
<svg version="1.0" xmlns="http://www.w3.org/2000/svg"
 width="104.000000pt" height="105.000000pt" viewBox="0 0 104.000000 105.000000"
 preserveAspectRatio="xMidYMid meet">

<g transform="translate(0.000000,105.000000) scale(0.100000,-0.100000)"
fill="#000000" stroke="none">
<path d="M356 705 c-22 -22 -4 -55 30 -55 28 0 42 25 27 49 -14 22 -38 25 -57
6z"/>
<path d="M350 490 l0 -130 35 0 35 0 0 130 0 130 -35 0 -35 0 0 -130z"/>
<path d="M480 490 l0 -130 35 0 34 0 3 98 3 97 35 0 35 0 3 -97 3 -98 34 0 35
0 0 105 c0 99 -2 107 -25 130 -26 27 -82 34 -103 13 -9 -9 -15 -9 -24 0 -7 7
-25 12 -40 12 l-28 0 0 -130z"/>
</g>
</svg>
